<svg xmlns="http://www.w3.org/2000/svg" version="1.1" xmlns:xlink="http://www.w3.org/1999/xlink" xmlns:svgjs="http://svgjs.dev/svgjs" viewBox="0 0 8.283514942517412 1.9598454457371446"><g transform="matrix(1,0,0,1,2.10233403314878,0.3489412775560723)"><rect width="8.283514942517412" height="8.283514942517412" x="-2.1023340331487796" y="-3.510776025946206" fill="#ffdabf"></rect><g><path d=" M 0.37646484375 1.27294921875 Q 0.34716796875 1.27294921875 0.3131103515625 1.2681884765625 Q 0.279052734375 1.263427734375 0.2449951171875 1.248046875 Q 0.2109375 1.232666015625 0.1798095703125 1.2044677734375 Q 0.148681640625 1.17626953125 0.1248779296875 1.130126953125 Q 0.10107421875 1.083984375 0.0867919921875 1.0162353515625 Q 0.072509765625 0.948486328125 0.072509765625 0.854736328125 L 0.072509765625 0.41162109375 Q 0.072509765625 0.317138671875 0.087158203125 0.2501220703125 Q 0.101806640625 0.18310546875 0.1259765625 0.1373291015625 Q 0.150146484375 0.091552734375 0.181640625 0.064453125 Q 0.213134765625 0.037353515625 0.246826171875 0.0230712890625 Q 0.280517578125 0.0087890625 0.3138427734375 0.00439453125 Q 0.34716796875 0 0.375732421875 0 Q 0.450439453125 0 0.5006103515625 0.0208740234375 Q 0.55078125 0.041748046875 0.5811767578125 0.0780029296875 Q 0.611572265625 0.1142578125 0.6243896484375 0.16259765625 Q 0.63720703125 0.2109375 0.63720703125 0.26513671875 Q 0.63720703125 0.305419921875 0.6331787109375 0.3394775390625 Q 0.629150390625 0.37353515625 0.62109375 0.41455078125 L 0.46728515625 0.41455078125 L 0.46728515625 0.350830078125 Q 0.46728515625 0.24755859375 0.444580078125 0.1962890625 Q 0.421875 0.14501953125 0.3779296875 0.14501953125 Q 0.3515625 0.14501953125 0.331787109375 0.1552734375 Q 0.31201171875 0.16552734375 0.298828125 0.1900634765625 Q 0.28564453125 0.214599609375 0.2786865234375 0.2548828125 Q 0.271728515625 0.295166015625 0.271728515625 0.355224609375 L 0.271728515625 0.926513671875 Q 0.271728515625 0.985107421875 0.2772216796875 1.02392578125 Q 0.28271484375 1.062744140625 0.295166015625 1.086181640625 Q 0.3076171875 1.109619140625 0.3277587890625 1.1195068359375 Q 0.347900390625 1.12939453125 0.37646484375 1.12939453125 Q 0.394775390625 1.12939453125 0.41162109375 1.1209716796875 Q 0.428466796875 1.112548828125 0.4412841796875 1.0946044921875 Q 0.4541015625 1.07666015625 0.4617919921875 1.0491943359375 Q 0.469482421875 1.021728515625 0.469482421875 0.984375 L 0.469482421875 0.862060546875 L 0.64306640625 0.862060546875 L 0.64306640625 0.977783203125 Q 0.64306640625 1.128662109375 0.57421875 1.200439453125 Q 0.50537109375 1.272216796875 0.37646484375 1.27294921875 M 0.9375 0.010986328125 L 1.15576171875 0.010986328125 L 1.38720703125 1.261962890625 L 1.1953125 1.261962890625 L 1.160888671875 1.037841796875 L 0.932373046875 1.037841796875 L 0.8994140625 1.261962890625 L 0.706787109375 1.261962890625 L 0.9375 0.010986328125 M 1.138916015625 0.89501953125 L 1.051025390625 0.271728515625 L 1.04296875 0.271728515625 L 0.954345703125 0.89501953125 L 1.138916015625 0.89501953125 M 1.515380859375 0.010986328125 L 1.705078125 0.010986328125 L 1.705078125 0.557373046875 L 1.7109375 0.557373046875 L 1.927734375 0.010986328125 L 2.11669921875 0.010986328125 L 1.875 0.59765625 L 2.143798828125 1.261962890625 L 1.94091796875 1.261962890625 L 1.7109375 0.66650390625 L 1.705078125 0.66650390625 L 1.705078125 1.261962890625 L 1.515380859375 1.261962890625 L 1.515380859375 0.010986328125 M 2.2587890625 0.010986328125 L 2.722412109375 0.010986328125 L 2.722412109375 0.160400390625 L 2.448486328125 0.160400390625 L 2.448486328125 0.53466796875 L 2.66015625 0.53466796875 L 2.66015625 0.68408203125 L 2.448486328125 0.68408203125 L 2.448486328125 1.112548828125 L 2.729736328125 1.112548828125 L 2.729736328125 1.261962890625 L 2.2587890625 1.261962890625 L 2.2587890625 0.010986328125 M 2.826416015625 0.938232421875 L 3.191162109375 0.010986328125 L 3.41748046875 0.010986328125 L 3.41748046875 0.88916015625 L 3.533203125 0.88916015625 L 3.533203125 1.037841796875 L 3.41748046875 1.037841796875 L 3.41748046875 1.261962890625 L 3.240966796875 1.261962890625 L 3.240966796875 1.037841796875 L 2.826416015625 1.037841796875 L 2.826416015625 0.938232421875 M 3.240966796875 0.88916015625 L 3.240966796875 0.70458984375 L 3.258544921875 0.23291015625 L 3.236572265625 0.23291015625 L 3.019775390625 0.88916015625 L 3.240966796875 0.88916015625 M 3.835693359375 0.84521484375 L 3.583740234375 0.010986328125 L 3.77490234375 0.010986328125 L 3.927978515625 0.609375 L 3.936767578125 0.609375 L 4.08837890625 0.010986328125 L 4.27880859375 0.010986328125 L 4.025390625 0.84521484375 L 4.025390625 1.261962890625 L 3.835693359375 1.261962890625 L 3.835693359375 0.84521484375 M 4.673583984375 1.27294921875 Q 4.6435546875 1.27294921875 4.6083984375 1.2681884765625 Q 4.5732421875 1.263427734375 4.538818359375 1.248046875 Q 4.50439453125 1.232666015625 4.4725341796875 1.2044677734375 Q 4.440673828125 1.17626953125 4.4161376953125 1.130126953125 Q 4.3916015625 1.083984375 4.376953125 1.0162353515625 Q 4.3623046875 0.948486328125 4.3623046875 0.854736328125 L 4.3623046875 0.41162109375 Q 4.3623046875 0.317138671875 4.3773193359375 0.2501220703125 Q 4.392333984375 0.18310546875 4.417236328125 0.1373291015625 Q 4.442138671875 0.091552734375 4.4739990234375 0.064453125 Q 4.505859375 0.037353515625 4.5406494140625 0.0230712890625 Q 4.575439453125 0.0087890625 4.60986328125 0.00439453125 Q 4.644287109375 0 4.673583984375 0 Q 4.701416015625 0 4.7354736328125 0.0040283203125 Q 4.76953125 0.008056640625 4.8035888671875 0.0216064453125 Q 4.837646484375 0.03515625 4.869873046875 0.0618896484375 Q 4.902099609375 0.088623046875 4.927001953125 0.1343994140625 Q 4.951904296875 0.18017578125 4.9669189453125 0.2479248046875 Q 4.98193359375 0.315673828125 4.98193359375 0.41162109375 L 4.98193359375 0.854736328125 Q 4.98193359375 0.94775390625 4.966552734375 1.0147705078125 Q 4.951171875 1.081787109375 4.92626953125 1.1282958984375 Q 4.9013671875 1.1748046875 4.8687744140625 1.2030029296875 Q 4.836181640625 1.231201171875 4.8021240234375 1.2469482421875 Q 4.76806640625 1.2626953125 4.734375 1.267822265625 Q 4.70068359375 1.27294921875 4.673583984375 1.27294921875 M 4.673583984375 1.130126953125 Q 4.701416015625 1.130126953125 4.7222900390625 1.12060546875 Q 4.7431640625 1.111083984375 4.7567138671875 1.087646484375 Q 4.770263671875 1.064208984375 4.7772216796875 1.0257568359375 Q 4.7841796875 0.9873046875 4.7841796875 0.9287109375 L 4.7841796875 0.359619140625 Q 4.7841796875 0.299560546875 4.7772216796875 0.25927734375 Q 4.770263671875 0.218994140625 4.7567138671875 0.1944580078125 Q 4.7431640625 0.169921875 4.7222900390625 0.15966796875 Q 4.701416015625 0.1494140625 4.673583984375 0.1494140625 Q 4.64501953125 0.1494140625 4.623779296875 0.15966796875 Q 4.6025390625 0.169921875 4.588623046875 0.1944580078125 Q 4.57470703125 0.218994140625 4.5677490234375 0.25927734375 Q 4.560791015625 0.299560546875 4.560791015625 0.359619140625 L 4.560791015625 0.9287109375 Q 4.560791015625 0.9873046875 4.5677490234375 1.0257568359375 Q 4.57470703125 1.064208984375 4.588623046875 1.087646484375 Q 4.6025390625 1.111083984375 4.623779296875 1.12060546875 Q 4.64501953125 1.130126953125 4.673583984375 1.130126953125 M 5.164306640625 0.010986328125 L 5.35546875 0.010986328125 L 5.35546875 0.927978515625 Q 5.35546875 0.986572265625 5.361328125 1.025390625 Q 5.3671875 1.064208984375 5.3800048828125 1.0872802734375 Q 5.392822265625 1.1103515625 5.4129638671875 1.1202392578125 Q 5.43310546875 1.130126953125 5.4609375 1.130126953125 Q 5.48876953125 1.130126953125 5.5096435546875 1.1202392578125 Q 5.530517578125 1.1103515625 5.5440673828125 1.0872802734375 Q 5.5576171875 1.064208984375 5.5645751953125 1.025390625 Q 5.571533203125 0.986572265625 5.571533203125 0.927978515625 L 5.571533203125 0.010986328125 L 5.760498046875 0.010986328125 L 5.760498046875 0.87744140625 Q 5.760498046875 0.968994140625 5.745849609375 1.0341796875 Q 5.731201171875 1.099365234375 5.70703125 1.143310546875 Q 5.682861328125 1.187255859375 5.6517333984375 1.212890625 Q 5.62060546875 1.238525390625 5.5872802734375 1.2520751953125 Q 5.553955078125 1.265625 5.52099609375 1.269287109375 Q 5.488037109375 1.27294921875 5.4609375 1.27294921875 Q 5.433837890625 1.27294921875 5.4012451171875 1.269287109375 Q 5.36865234375 1.265625 5.335693359375 1.2520751953125 Q 5.302734375 1.238525390625 5.27197265625 1.212890625 Q 5.2412109375 1.187255859375 5.217041015625 1.143310546875 Q 5.19287109375 1.099365234375 5.1785888671875 1.0345458984375 Q 5.164306640625 0.9697265625 5.164306640625 0.87744140625 L 5.164306640625 0.010986328125" fill="#ffffff" fill-rule="nonzero"></path></g><g></g><g clip-path="url(#SvgjsClipPath1002)"><g clip-path="url(#b5da785a8-4d7f-4042-b7c4-330298118e3d418cd349-6a6c-495a-8363-7ecc02dbbffc)"><path d=" M -0.6022259649041248 0.1107449658560255 L -1.4377568385022959 0.25422719543475675 L -0.4000418110358772 0.9459179008914556 Z" fill="#854f18" transform="matrix(1,0,0,1,0,0)" fill-rule="nonzero"></path></g><g clip-path="url(#b5da785a8-4d7f-4042-b7c4-330298118e3d418cd349-6a6c-495a-8363-7ecc02dbbffc)"><path d=" M -1.4377568385022959 0.48519983656345556 L -0.3999906769554855 1.0621967997018744 L -0.3999906769554855 0.9459690349718474 L -1.4377568385022959 0.25422719543475664 Z" fill="#5b2a22" transform="matrix(1,0,0,1,0,0)" fill-rule="nonzero"></path></g><g clip-path="url(#b5da785a8-4d7f-4042-b7c4-330298118e3d418cd349-6a6c-495a-8363-7ecc02dbbffc)"><path d=" M -1.4381147770650369 0.7161724776921544 L -0.40039974959861824 1.1780666258691606 L -0.40039974959861824 1.0621967997018742 L -1.4377057044219044 0.48519983656345556 Z" fill="#efb685" transform="matrix(1,0,0,1,0,0)" fill-rule="nonzero"></path></g><g clip-path="url(#b5da785a8-4d7f-4042-b7c4-330298118e3d418cd349-6a6c-495a-8363-7ecc02dbbffc)"><path d=" M -1.4377568385022959 0.9447929511228413 L -0.4004508836790095 1.2927603681874407 L -0.4004508836790095 1.1780666258691606 L -1.4381659111454284 0.7161213436117629 Z" fill="#5b2a22" transform="matrix(1,0,0,1,0,0)" fill-rule="nonzero"></path></g><g clip-path="url(#b5da785a8-4d7f-4042-b7c4-330298118e3d418cd349-6a6c-495a-8363-7ecc02dbbffc)"><path d=" M -1.7841902331551482 1.2915842843384346 L -0.40039974959861824 1.2927603681874407 L -1.4377568385022959 0.9447929511228413 Z" fill="#cbc0b1" transform="matrix(1,0,0,1,0,0)" fill-rule="nonzero"></path></g><g clip-path="url(#b5da785a8-4d7f-4042-b7c4-330298118e3d418cd349-6a6c-495a-8363-7ecc02dbbffc)"><path d=" M -0.7639630611826447 0.19562753930602325 C -0.74453211063385 0.2364836695388836 -0.804358984691981 0.30541240990671314 -0.8974230110046292 0.34964338944541684 C -0.990538171397669 0.39392550306451213 -1.0818125048966123 0.39668674340565657 -1.1011923213650154 0.35588174725318783 C -1.1205721378334186 0.31502561702032744 -1.060796397855679 0.24604574257210626 -0.9676812374626393 0.20181476303340262 C -0.8745660770695997 0.15758378349469893 -0.7833428776510478 0.15477140907316286 -0.7639630611826447 0.19562753930602325" fill="#3e2c2f" transform="matrix(1,0,0,1,0,0)" fill-rule="nonzero"></path></g><g clip-path="url(#b5da785a8-4d7f-4042-b7c4-330298118e3d418cd349-6a6c-495a-8363-7ecc02dbbffc)"><path d=" M -0.7371176689770731 0.14669222437129548 C -0.7371176689770731 0.24474349312207366 -0.8166039273458084 0.32422975149080896 -0.9146551960965866 0.32422975149080896 C -1.0127064648473647 0.32422975149080896 -1.0921927232161 0.24474349312207366 -1.0921927232161002 0.1466922243712955 C -1.0921927232161 0.04864095562051726 -1.0127064648473647 -0.030845302748218024 -0.9146551960965866 -0.030845302748218024 C -0.8166039273458084 -0.030845302748218024 -0.7371176689770731 0.048640955620517276 -0.7371176689770731 0.14669222437129548" fill="#ef3120" transform="matrix(1,0,0,1,0,0)" fill-rule="nonzero"></path></g><g clip-path="url(#b5da785a8-4d7f-4042-b7c4-330298118e3d418cd349-6a6c-495a-8363-7ecc02dbbffc)"><path d=" M -0.7903993807450839 0.0694797629800325 C -0.7995012470547824 0.08528019382102606 -0.8328918015504744 0.08308142836418878 -0.864901735875594 0.06462202534283382 C -0.8970139383614967 0.04606035416069576 -0.9155756095436348 0.018294548508075978 -0.9064226091535447 0.002494117667082414 C -0.8973718769242377 -0.013306313173911146 -0.8639813224285459 -0.01115868179746542 -0.8318691199426431 0.007351855304281084 C -0.7998591856175234 0.02581125832563603 -0.7812975144353853 0.05362819805864737 -0.7903993807450839 0.0694797629800325" fill="#fffcbf" transform="matrix(1,0,0,1,0,0)" fill-rule="nonzero"></path></g></g></g><defs><clipPath id="SvgjsClipPath1002"><path d=" M -1.7841902331551482 -0.030797477562440667 h 1.384190233155148 v 1.3235578457498813 h -1.384190233155148 Z"></path></clipPath><clipPath id="b5da785a8-4d7f-4042-b7c4-330298118e3d418cd349-6a6c-495a-8363-7ecc02dbbffc"><path d=" M -1.8353243135467132 -0.0819282490593913 L -0.34885659656392054 -0.0819282490593913 L -0.34885659656392054 1.3438944485790056 L -1.8353243135467132 1.3438944485790056 Z"></path></clipPath></defs></svg>